<?xml version="1.0" encoding="utf-8"?>
<!-- Uploaded to: SVG Repo, www.svgrepo.com, Generator: SVG Repo Mixer Tools -->
<svg width="800px" height="800px" viewBox="-43.65 0 289.782 289.782" xmlns="http://www.w3.org/2000/svg"><defs><style>.a{fill:#ffffff;}.b{fill:#211715;}.c{fill:#85807f;}</style></defs><path class="a" d="M98.24,133.042h42.928c18.785,5.634,33.315,10.938,43.8,21.863,7.253,8.429,13.844,17.916,15.044,38,0,23.551-3.261,49.784-15.484,70.49-4.5,7.618-10.639,14.416-18.358,18.737a42.105,42.105,0,0,1-32.438,3.456c-.146-.046-.292-.094-.438-.142-8.63-2.856-14.8-7.515-19.292-14.625a44.841,44.841,0,0,1-3.817-7.741c-6.068,0-11.958,0-18,0a44.746,44.746,0,0,1-3.816,7.739c-4.5,7.11-10.662,11.769-19.292,14.625-.145.048-.291.1-.438.142A42.106,42.106,0,0,1,36.2,282.131c-7.719-4.321-13.861-11.119-18.358-18.737C5.619,242.688,2.359,216.455,2.359,192.9c1.2-20.083,7.791-29.57,15.044-38,10.488-10.925,25.018-16.229,43.8-21.863Z"/><path class="a" d="M107.079,171.256c-.011-.142-.022-.283-.032-.425-.024-.312-.049-.623-.073-.933-.012-.147-.024-.294-.035-.441q-.043-.534-.087-1.064c-.038-.475-.077-.948-.114-1.417l-.014-.168q-.042-.541-.084-1.079c-.01-.129-.019-.258-.029-.387q-.032-.435-.062-.868c-.01-.143-.02-.286-.029-.428q-.032-.475-.059-.945l-.018-.285q-.033-.6-.059-1.2c0-.1-.008-.2-.011-.3-.012-.3-.022-.595-.03-.889q-.006-.2-.009-.4c-.006-.272-.009-.542-.011-.811,0-.126,0-.253,0-.379q0-.51.011-1.014c0-.044,0-.088,0-.132.009-.378.024-.751.044-1.122,0-.107.013-.212.02-.318q.024-.4.057-.8c.01-.124.022-.248.034-.371q.037-.386.084-.767c.014-.109.026-.22.04-.328.048-.356.1-.708.163-1.056,0-.026.01-.051.015-.077.057-.32.122-.637.193-.952.024-.107.051-.214.076-.321q.085-.355.183-.707.047-.168.1-.336c.073-.245.151-.487.234-.728.03-.087.057-.175.088-.261q.172-.481.371-.949c.028-.066.06-.13.089-.2q.164-.37.345-.735c.052-.1.106-.2.159-.3q.167-.315.348-.622c.058-.1.116-.2.176-.3.146-.235.3-.466.459-.7.04-.058.077-.117.118-.175.2-.283.418-.56.643-.834.06-.073.126-.145.188-.217q.258-.3.535-.6c.086-.091.173-.18.261-.269.182-.183.371-.364.565-.543.087-.081.173-.162.263-.242.042-.037.08-.075.123-.112h.012a25.386,25.386,0,0,1,8.811-4.7,42.616,42.616,0,0,0,21.784-25.093c.974-3.212,2.545-15.214,7.3-12.374l.962-4.037s1.358-5.707,4.277-7.247a4.193,4.193,0,0,1,4.338.011,4.4,4.4,0,0,1,.751.585,16.517,16.517,0,0,0-1.608-8.243,6.856,6.856,0,0,0-6.159-3.422,7.394,7.394,0,0,0-5.342,1.955s2.361-41.442-45.455-41.442S52.9,80.208,52.9,80.208a7.393,7.393,0,0,0-5.342-1.955A6.856,6.856,0,0,0,41.4,81.675c-1.749,3.033-1.971,8.2-1.178,12.231.041-.5.082-1.023.126-1.584a4.787,4.787,0,0,1,2.144-2.989,4.192,4.192,0,0,1,4.337-.011c2.919,1.54,4.278,7.247,4.278,7.247s.495,2.082.961,4.037c4.753-2.84,6.324,9.162,7.3,12.374a42.616,42.616,0,0,0,21.784,25.093,25.268,25.268,0,0,1,8.883,4.76h.008c.023.02.045.042.068.063.1.086.189.175.284.263.182.169.361.34.533.513q.149.15.291.3c.164.174.322.351.476.53.081.095.164.188.243.284.214.261.42.526.613.8.033.046.063.093.095.139q.258.369.493.748c.062.1.121.2.181.308.116.2.228.4.335.6.059.111.117.222.172.333.108.216.21.435.309.656.04.091.084.181.123.273q.2.462.366.935c.028.079.052.159.079.239.085.246.166.5.24.746.034.115.066.23.1.346q.093.339.177.684c.027.116.056.231.082.347.061.274.116.55.167.828.013.068.028.134.04.2q.09.517.16,1.045c.014.105.025.21.038.315q.048.386.086.775c.012.126.023.252.034.379.021.255.039.511.055.77.007.116.015.231.021.348q.03.55.044,1.112v.051c.008.362.011.728.012,1.1,0,.123,0,.248,0,.372,0,.269-.005.539-.011.811q0,.2-.009.405-.012.434-.029.87c0,.106-.007.211-.012.316q-.025.593-.059,1.192c0,.088-.011.177-.016.265q-.028.482-.061.969c-.009.139-.019.28-.029.42-.02.286-.04.572-.062.86-.01.138-.02.275-.031.413q-.039.519-.081,1.042l-.015.188q-.052.663-.108,1.334-.047.584-.1,1.173c-.011.134-.021.27-.032.405-.025.313-.049.627-.074.942-.01.14-.021.28-.032.421q-.05.659-.095,1.322s-.083.825-.2,1.975q1.711.206,3.38.424a3.049,3.049,0,0,1,2.537,3.093h.74a3.048,3.048,0,0,1,2.538-3.093q1.6-.21,3.251-.411c-.1-1.141-.171-1.988-.171-1.988Q107.129,171.914,107.079,171.256Z"/><path class="b" d="M93.1,250.787c-1.573,8.525-4.537,17.326-10.61,23.736A35.024,35.024,0,0,1,60.8,284.783a40.1,40.1,0,0,1-25.959-6.291c-7.418-4.9-12.852-12.146-16.946-19.933-8.676-16.5-11.918-35.455-12.849-53.9a105.945,105.945,0,0,1-.124-14.04,68.62,68.62,0,0,1,2.187-12.647,51.253,51.253,0,0,1,8.736-17.4,49.973,49.973,0,0,1,6.368-6.945,56,56,0,0,1,9.261-6.509c7.368-4.208,15.415-7.065,23.474-9.633,2.292-.73,4.592-1.433,6.9-2.125,2.951-.886,1.694-5.521-1.276-4.629-9.081,2.728-18.19,5.6-26.746,9.74-7.141,3.451-14.163,7.991-19.291,14.124A60.4,60.4,0,0,0,4.038,171.916C.785,180.494-.192,189.73.03,198.843c.478,19.632,3.293,39.667,11.522,57.66,3.957,8.653,9.272,16.917,16.678,23.017A44.8,44.8,0,0,0,55.2,289.755,41.743,41.743,0,0,0,81.484,281.8c7.343-5.536,11.811-13.566,14.449-22.254a68.615,68.615,0,0,0,1.8-7.482,2.466,2.466,0,0,0-1.676-2.953,2.421,2.421,0,0,0-2.952,1.676Z"/><path class="b" d="M104.642,252.064c1.7,9.24,5.116,18.611,11.6,25.6,6.164,6.637,14.988,10.6,23.892,11.755a44.513,44.513,0,0,0,28.29-5.816c8.172-4.9,14.487-12.369,19.107-20.611,9.678-17.265,13.392-37.306,14.514-56.869a112.234,112.234,0,0,0,.274-14.6,77.93,77.93,0,0,0-2.244-14.145,54.8,54.8,0,0,0-9.245-19.018,53.6,53.6,0,0,0-6.893-7.786,61.264,61.264,0,0,0-10.006-7.248c-7.814-4.568-16.438-7.661-25.03-10.406-2.359-.753-4.727-1.477-7.1-2.19-2.965-.89-4.232,3.741-1.276,4.629,8.563,2.572,17.186,5.235,25.27,9.1,6.694,3.2,13.392,7.312,18.231,13.035a54.852,54.852,0,0,1,9.5,15.256,65.189,65.189,0,0,1,4.031,25.067c-.37,18.456-2.724,37.484-10.126,54.554-3.564,8.221-8.212,16.09-14.875,22.182a39.623,39.623,0,0,1-24.147,10.344,37.79,37.79,0,0,1-24.539-6.817c-6.648-4.809-10.564-12.314-12.873-20.015a68.658,68.658,0,0,1-1.736-7.273,2.422,2.422,0,0,0-2.952-1.676,2.453,2.453,0,0,0-1.677,2.953Z"/><path class="c" d="M58.173,21.784C43.568,34.461,38.251,57.137,45.334,78.593a9.038,9.038,0,0,1,2.221-.34A7.393,7.393,0,0,1,52.9,80.208l7.554-6.343c5.669-6.318,15.676-15.84,22.7-19.523.823-.432,1.881.153,2.214,1.529a9.024,9.024,0,0,1,.216,3.294,1.716,1.716,0,0,0,2.445,1.842c5.013-2.785,13.945-8.39,20.278-11.059,4.5-.852,9.392,1.154,9.392,1.154a30.353,30.353,0,0,1,8.65,5.44c5.7,4.906,11.167,11.635,13.587,17.726l7.5,5.94a7.394,7.394,0,0,1,5.342-1.955,8.754,8.754,0,0,1,2.494.428c4.713-18.645,1.981-42.854-12.519-54.463l-6.283-6.588c-7.128-9.4-18.715-14.493-35.267-15.219-21.534-.728-37.43,8.908-44.466,17.882Z"/><path class="b" d="M58.426,21.99C64.773,13.963,74.468,8.947,84.288,6.514a62.21,62.21,0,0,1,19.874-1.522A53.906,53.906,0,0,1,121.3,8.907a32.783,32.783,0,0,1,13.086,9.934,2.479,2.479,0,0,0,3.283.861,2.416,2.416,0,0,0,.861-3.284,37.284,37.284,0,0,0-12.584-10.6A54.409,54.409,0,0,0,107.817.568c-13.585-1.73-27.764.441-39.752,7.239A44.5,44.5,0,0,0,55.032,18.6a2.477,2.477,0,0,0,0,3.394,2.417,2.417,0,0,0,3.394,0Z"/><path class="b" d="M47.566,77.7c-4.751-14.765-3.967-31.581,4.38-44.941a41.627,41.627,0,0,1,7.924-9.28c2.328-2.039-1.078-5.423-3.394-3.395C44.065,30.953,38.715,48.076,40.015,64.233a65.241,65.241,0,0,0,2.922,14.746c.943,2.929,5.579,1.676,4.629-1.276Z"/><path class="b" d="M141.048,25.916c11.5,9.309,14.608,25.44,13.819,39.506a67.578,67.578,0,0,1-1.85,12.355c-.737,3,3.891,4.279,4.628,1.276,3.737-15.22,3.139-33.074-4.981-46.851a35.828,35.828,0,0,0-8.222-9.681,2.472,2.472,0,0,0-3.394,0,2.42,2.42,0,0,0,0,3.395Z"/><path class="b" d="M54.594,78.511a10.431,10.431,0,0,0-11.529-1.59A10.156,10.156,0,0,0,37.964,84a26.43,26.43,0,0,0,4.2,20.6c2.921,4.149,7.247,7.313,12.549,6.2,3.022-.633,1.743-5.261-1.276-4.628-3.835.8-6.8-3.094-8.391-6.039a22.79,22.79,0,0,1-2.8-9.02,19.842,19.842,0,0,1,.206-5.163,12.07,12.07,0,0,1,.613-2.256,6.645,6.645,0,0,1,.488-.94c.055-.091.5-.713.162-.283a5.377,5.377,0,0,1,7.488-.56c2.286,2.068,5.69-1.316,3.394-3.394Z"/><path class="b" d="M149.125,81.905a5.379,5.379,0,0,1,7.488.56c-.341-.43.107.192.162.283a6.757,6.757,0,0,1,.489.94,12.145,12.145,0,0,1,.612,2.256,19.938,19.938,0,0,1,.191,5.345,22.793,22.793,0,0,1-2.874,9c-1.647,2.983-4.667,6.8-8.543,5.817-3-.755-4.275,3.873-1.276,4.629,8.735,2.2,14.171-7,16.469-13.962a24.744,24.744,0,0,0,.781-11.408,11.394,11.394,0,0,0-4.283-7.8,10.33,10.33,0,0,0-12.61.948c-2.295,2.077,1.108,5.463,3.394,3.394Z"/><path class="b" d="M116.483,53.174a38.1,38.1,0,0,1,12.212,8.9c3.573,3.715,6.97,8.013,8.922,12.83a2.476,2.476,0,0,0,2.952,1.677,2.417,2.417,0,0,0,1.677-2.953,47.687,47.687,0,0,0-9.878-14.655,41.877,41.877,0,0,0-13.463-9.945,2.476,2.476,0,0,0-3.283.861,2.416,2.416,0,0,0,.861,3.283Z"/><path class="b" d="M62.148,75.562c5.668-6.3,11.944-12.48,19-17.211.711-.477,1.435-.935,2.176-1.364.469-.272,1.153-.346.241-.488-.685-.106-.525-.185-.421.441a23.984,23.984,0,0,1,.045,2.707A4.247,4.247,0,0,0,85.2,63.03c2.07,1.24,3.988.093,5.816-.958C92.8,61.045,94.57,60,96.35,58.964a120.529,120.529,0,0,1,13.164-6.943,2.415,2.415,0,0,0,.861-3.284,2.464,2.464,0,0,0-3.284-.861,111.238,111.238,0,0,0-11.825,6.169c-1.856,1.069-3.7,2.157-5.554,3.233q-1.143.664-2.293,1.317a1.939,1.939,0,0,0-.487.273c-.316.351.357-.168.687.017.035.02.6.592.351.607,0,0,.049-.764.051-.811.113-2.275-.306-5.157-2.483-6.391-2.133-1.21-4.2.233-5.981,1.372a81.655,81.655,0,0,0-10.4,8.151,137.478,137.478,0,0,0-10.4,10.355c-2.062,2.29,1.322,5.695,3.394,3.394Z"/><path class="b" d="M143.689,105.344a57.231,57.231,0,0,1-3.23,9.787c.286-.709-.195.42-.316.672-.215.452-.442.9-.674,1.341-.591,1.127-1.226,2.23-1.887,3.317a58.826,58.826,0,0,1-12.713,15.109,23.37,23.37,0,0,1-9.417,4.89c-3.009.694-1.736,5.324,1.276,4.628,7.241-1.672,13.257-6.99,17.965-12.5a64.082,64.082,0,0,0,9.87-14.953q.246-.549.474-1.1c.065-.16.344-.811.073-.189.38-.873.753-1.748,1.089-2.639a46.658,46.658,0,0,0,2.118-7.083,2.458,2.458,0,0,0-1.676-2.952,2.424,2.424,0,0,0-2.952,1.676Z"/><path class="b" d="M50.891,105.47a59.2,59.2,0,0,0,8.418,19.74c4.278,6.4,9.891,12.4,16.687,16.151a33.076,33.076,0,0,0,11.137,3.786,2.479,2.479,0,0,0,2.952-1.676,2.418,2.418,0,0,0-1.676-2.953c-13.974-2.064-24.4-14.13-29.746-26.527a56,56,0,0,1-3.144-9.8c-.682-3.011-5.311-1.737-4.628,1.276Z"/><path class="b" d="M91.332,120.121a19.243,19.243,0,0,0,9.271,2.146,15.073,15.073,0,0,0,9.353-2.758,2.412,2.412,0,0,0,0-3.394,2.462,2.462,0,0,0-3.394,0c.728-.566.161-.131-.026-.012s-.378.23-.574.333c-.1.053-.2.1-.307.153-.377.194.085.012.094-.031-.019.089-.7.257-.791.288a13.973,13.973,0,0,1-2.214.5c.353-.052-.072,0-.213.019q-.326.031-.653.053c-.523.034-1.048.047-1.573.044q-.705,0-1.409-.05c-.216-.015-.431-.032-.646-.054-.022,0-.8-.111-.314-.034a16.034,16.034,0,0,1-2.068-.459c-.29-.087-.572-.191-.858-.289-.615-.21.35.182-.2-.08q-.533-.251-1.052-.524a2.452,2.452,0,0,0-3.283.861,2.425,2.425,0,0,0,.861,3.283Z"/><path class="b" d="M99.387,98.275a43.457,43.457,0,0,1,1.025,4.687l-.086-.638a2.918,2.918,0,0,1,.018.647l.085-.638a1.526,1.526,0,0,1-.071.291l.242-.573a1.178,1.178,0,0,1-.1.187l.376-.486a1,1,0,0,1-.154.151l.486-.375a2.982,2.982,0,0,1-.371.2l.573-.242a2.733,2.733,0,0,1-.625.183l.638-.086a2.514,2.514,0,0,1-.588,0l.638.086c-.221-.031-.438-.085-.66-.115a1.823,1.823,0,0,0-.957-.043,1.794,1.794,0,0,0-.892.285,2.4,2.4,0,0,0-.861,3.284,2.3,2.3,0,0,0,1.434,1.1c.5.067.993.2,1.5.218a4.8,4.8,0,0,0,2.218-.527,3.2,3.2,0,0,0,1.774-2.11,5.293,5.293,0,0,0-.023-2.272c-.255-1.51-.6-3.007-.992-4.488a2.4,2.4,0,0,0-4.629,1.276Z"/><path class="b" d="M74.6,85c-.783,2.543-.272,8.394,4.546,8.892,6.369-.038,6.708-7.112,4.564-10.438C81.957,80.734,76.8,79.6,74.6,85Z"/><path class="b" d="M125.6,85c.783,2.544.273,8.395-4.545,8.892-6.369-.038-6.708-7.112-4.565-10.438C118.249,80.734,123.41,79.6,125.6,85Z"/><path class="b" d="M110.191,260.679H92.181c-3.088,0-3.093,4.8,0,4.8h18.01c3.089,0,3.094-4.8,0-4.8Z"/><path class="a" d="M66.994,170.9c.271-1.791.422-2.878.775-5.334a7.316,7.316,0,0,0-3.744-7.478,28.047,28.047,0,0,1-3.945-2.365c-8.485-6.411-12.9-10.527-15.368-18.568-2.426-7.931-3.877-18.09-4.724-31.352a76.767,76.767,0,0,1,.356-13.484,4.787,4.787,0,0,1,2.144-2.989,4.192,4.192,0,0,1,4.337-.011c2.919,1.54,4.278,7.247,4.278,7.247l.961,4.037c4.753-2.84,6.324,9.162,7.3,12.374a42.616,42.616,0,0,0,21.784,25.093c18,5.941,15,19.157,13.953,34.5"/><path class="b" d="M97.5,172.577c.533-7.679,2.1-16.17-.56-23.628a19.334,19.334,0,0,0-7.143-9.337,28.054,28.054,0,0,0-6.188-3.2,31.865,31.865,0,0,1-6.542-3.456A38.9,38.9,0,0,1,61.125,110.1c-.8-3.524-1.53-7.587-3.919-10.432-2.647-3.152-7.324-1.948-9.188,1.409-1.76,3.169-1.544,7.19-1.171,10.674a156.937,156.937,0,0,0,3.494,19.053c.7,3.007,5.332,1.734,4.628-1.276a141.115,141.115,0,0,1-3.235-16.983c-.119-1.113-.241-2.224-.291-3.343-.032-.712-.042-1.427-.014-2.14.016-.408.043-.816.085-1.222.007-.064.067-.471.008-.087.036-.236.08-.472.13-.706a10.543,10.543,0,0,1,.31-1.116c.026-.077.178-.425.006-.045a4.1,4.1,0,0,1,.194-.386c.091-.151.177-.3.278-.447.215-.311-.375.36.079-.07a3.881,3.881,0,0,1,.3-.275c-.414.323.125-.05.2-.069-.531.138.544-.2.378-.077-.05.037.3.134-.211-.041a1.4,1.4,0,0,1,.324.089l-.263-.1a1.9,1.9,0,0,1,.224.138c-.027.11-.254-.272.012.04.087.1.182.194.268.3-.322-.383.1.159.127.214,1.492,2.585,2.086,5.917,2.822,9.05,2.138,9.1,8.285,17.427,15.579,23.108a41.668,41.668,0,0,0,6.3,4.118c2.067,1.08,4.323,1.686,6.383,2.793a15.209,15.209,0,0,1,6.854,6.783,13.29,13.29,0,0,1,.81,2.144,22.019,22.019,0,0,1,.623,2.78c.1.616.186,1.53.238,2.44.056.983.072,1.967.064,2.951-.041,4.415-.548,8.813-.853,13.213a2.4,2.4,0,1,0,4.8,0Z"/><path class="b" d="M53.417,95.931a17.835,17.835,0,0,0-2.662-6.095c-2.512-3.5-7.244-4.827-10.672-1.659a7.4,7.4,0,0,0-2.228,5.273c-.152,1.9-.319,3.807-.391,5.716a104.318,104.318,0,0,0,.58,12.79,136.324,136.324,0,0,0,3.622,23.268,35.543,35.543,0,0,0,3.649,9.278,33.659,33.659,0,0,0,6.552,7.674c1.691,1.511,3.473,2.916,5.269,4.3a53.985,53.985,0,0,0,5.836,3.779c3.666,2.149,2.223,6.6,1.707,10.01a2.478,2.478,0,0,0,1.677,2.952,2.418,2.418,0,0,0,2.952-1.676c.533-3.526,1.607-7.318.175-10.745A9.859,9.859,0,0,0,66,156.5c-1.565-1.1-3.348-1.825-4.891-2.984-5.07-3.808-10.183-7.923-12.9-13.8a43.445,43.445,0,0,1-2.626-8.659c-.75-3.317-1.324-6.677-1.774-10.048-1.034-7.729-1.95-15.747-1.461-23.548.062-.989.141-1.976.22-2.963a6.074,6.074,0,0,1,.326-2.224,2.057,2.057,0,0,1,3.277-.479,10.928,10.928,0,0,1,2.614,5.411c.726,3,5.356,1.73,4.629-1.276Z"/><path class="a" d="M135.28,170.9c-.272-1.791-.423-2.878-.775-5.334a7.313,7.313,0,0,1,3.744-7.478,28.1,28.1,0,0,0,3.945-2.365c8.484-6.411,12.9-10.527,15.368-18.568,2.425-7.931,3.877-18.09,4.723-31.352a76.67,76.67,0,0,0-.356-13.484,4.785,4.785,0,0,0-2.143-2.989,4.193,4.193,0,0,0-4.338-.011c-2.919,1.54-4.277,7.247-4.277,7.247l-.962,4.037c-4.753-2.84-6.324,9.162-7.3,12.374a42.621,42.621,0,0,1-21.785,25.093c-18,5.941-15,19.157-13.952,34.5"/><path class="b" d="M109.575,172.577c-.273-3.92-.7-7.835-.822-11.764a28.659,28.659,0,0,1,.968-9.864,13.939,13.939,0,0,1,5.179-7.193,23.459,23.459,0,0,1,5.394-2.849,33.492,33.492,0,0,0,6.7-3.375,44.914,44.914,0,0,0,18.125-23.553c.944-3.007,1.331-6.151,2.453-9.111a13.509,13.509,0,0,1,.832-1.671,3.848,3.848,0,0,1,.246-.367c-.258.344-.042.068.013,0,.005,0,.428-.487.174-.2-.149.1-.133.095.048-.029q.292-.156.019-.037c-.023.112-.126.023.192-.038-.622.119-.255.021-.128.056-.593-.163.975.255.3.062.421.12.521.287.8.769.09.155.172.315.247.478-.175-.384.045.15.078.261.113.374.206.75.286,1.133a13.852,13.852,0,0,1,.188,2.27,35.005,35.005,0,0,1-.247,4.354,147.025,147.025,0,0,1-3.306,17.624c-.7,3,3.924,4.288,4.628,1.276a152.991,152.991,0,0,0,3.419-18.37,25.959,25.959,0,0,0-.154-8.893c-.864-3.584-4.515-7.249-8.436-5.254-3.183,1.62-4.239,6.137-5.024,9.3a45.672,45.672,0,0,1-3.779,11.062,41.884,41.884,0,0,1-9.837,12.088,37.329,37.329,0,0,1-6.18,4.237c-2.215,1.216-4.667,1.889-6.906,3.073a20.022,20.022,0,0,0-8.553,8.244c-4.148,8-2.3,17.714-1.707,26.29a2.456,2.456,0,0,0,2.4,2.4,2.421,2.421,0,0,0,2.4-2.4Z"/><path class="b" d="M153.485,97.207a12.709,12.709,0,0,1,2.077-4.816c.562-.748,1.678-1.709,2.883-1.062,1.345.721,1.164,2,1.273,3.369a120.89,120.89,0,0,1-.895,23.368,91.586,91.586,0,0,1-3.955,19.614c-2.072,5.964-6.5,10.176-11.337,14.009a37.511,37.511,0,0,1-5.477,3.785,11.282,11.282,0,0,0-4.671,4.094c-2.21,3.718-1.022,7.976-.418,11.973a2.417,2.417,0,0,0,2.953,1.676,2.46,2.46,0,0,0,1.676-2.952c-.459-3.036-1.765-6.862.76-9.306,1.34-1.3,3.346-1.917,4.859-3.019,1.736-1.265,3.431-2.6,5.09-3.967a42.067,42.067,0,0,0,7.373-7.54,29.363,29.363,0,0,0,4.289-8.932,117.3,117.3,0,0,0,3.955-22.208c.448-4.475.878-8.993.925-13.493.019-1.8-.065-3.6-.195-5.4-.143-1.963-.019-4.2-.857-6.012A6.891,6.891,0,0,0,152.421,88.7a16.722,16.722,0,0,0-3.565,7.233c-.726,3,3.9,4.282,4.629,1.276Z"/><path class="b" d="M162.621,225.11c-2.416-10.62-4.724-21.265-7.036-31.908q-1.647-7.584-3.3-15.166c-.454-2.074-.754-4.276-1.4-6.3a5.414,5.414,0,0,0-2.582-3.1c-1.473-.793-2.923-.59-4.5-.408-12.372,1.422-24.783,2.484-37.142,4.022a14.67,14.67,0,0,0-4.392.808,5.385,5.385,0,0,0-2.764,3.121,14.018,14.018,0,0,0-.415,4.375q-.069,2.709-.1,5.42-.106,10.2.367,20.394c.7,15.343,2.9,30.538,5.287,45.7a2.419,2.419,0,0,0,2.953,1.676,2.46,2.46,0,0,0,1.676-2.953c-1.989-12.636-3.878-25.3-4.759-38.074-.446-6.462-.66-12.946-.726-19.423q-.048-4.764.032-9.528.039-2.349.108-4.7c.02-.661-.089-1.472.488-1.714a7.781,7.781,0,0,1,1.812-.247q1.082-.137,2.165-.267,2.21-.266,4.42-.516,4.531-.511,9.066-.979c5.872-.613,11.748-1.2,17.617-1.834q2.153-.234,4.3-.48c.588-.068,1.944-.527,2.414-.037.39.405.445,1.751.57,2.32q.369,1.678.737,3.359,1.517,6.938,3.019,13.879c2.451,11.286,4.893,22.576,7.455,33.838.685,3.01,5.314,1.736,4.628-1.276Z"/><path class="b" d="M44.182,227.274c2.252-9.9,4.42-19.812,6.588-29.727q1.6-7.345,3.208-14.691.693-3.168,1.388-6.334c.2-.93.4-1.865.615-2.792.209-.884.484-.816,1.346-.725,11.923,1.27,23.872,2.339,35.781,3.732,1.441.169,2.889.316,4.324.529.689.1.835.129.985.8a13.987,13.987,0,0,1,.072,2.484q.031,1.235.055,2.47.045,2.454.058,4.908.048,9.705-.428,19.4c-.707,14.59-2.8,29.037-5.07,43.452a2.475,2.475,0,0,0,1.676,2.953,2.419,2.419,0,0,0,2.952-1.676c2.157-13.7,4.215-27.454,5.058-41.312.412-6.784.6-13.585.616-20.381q.009-5.157-.13-10.314a10.367,10.367,0,0,0-.708-4.593,5.321,5.321,0,0,0-3.181-2.7,27.516,27.516,0,0,0-4.534-.623q-2.419-.294-4.842-.56c-3.167-.352-6.338-.677-9.509-1-6.3-.63-12.615-1.223-18.915-1.906-2.845-.308-6.142-1.3-8.534.8-1.811,1.588-1.991,4.285-2.478,6.5q-1.6,7.276-3.183,14.556C44.811,202.368,42.239,214.2,39.553,226c-.684,3.008,3.943,4.292,4.629,1.276Z"/></svg>