{
    "asset" : {
        "copyright" : "Tobias Maneschijn",
        "generator" : "Khronos glTF Blender I/O v3.3.32",
        "version" : "2.0"
    },
    "extensionsUsed" : [
        "KHR_materials_emissive_strength"
    ],
    "scene" : 0,
    "scenes" : [
        {
            "name" : "Scene",
            "nodes" : [
                0,
                1,
                2,
                3,
                4
            ]
        }
    ],
    "nodes" : [
        {
            "mesh" : 0,
            "name" : "Plane.002",
            "rotation" : [
                -0.10909603536128998,
                -0.10909602046012878,
                -0.6986401677131653,
                0.6986402273178101
            ],
            "scale" : [
                0.27088919281959534,
                0.3770011365413666,
                0.4404948353767395
            ],
            "translation" : [
                1.4559741020202637,
                5.396758079528809,
                -2.362034797668457
            ]
        },
        {
            "mesh" : 1,
            "name" : "Cylinder",
            "rotation" : [
                -0.1487416923046112,
                0,
                0,
                0.9888761043548584
            ],
            "scale" : [
                0.060926854610443115,
                0.5904101729393005,
                0.06416971981525421
            ],
            "translation" : [
                1.4432339668273926,
                5.25153923034668,
                -1.8054193258285522
            ]
        },
        {
            "mesh" : 2,
            "name" : "Cube.001",
            "rotation" : [
                0.09927336871623993,
                -0.6848055124282837,
                0.6623778939247131,
                0.28712666034698486
            ],
            "scale" : [
                0.12418663501739502,
                0.06335809826850891,
                0.26720643043518066
            ],
            "translation" : [
                -0.7932105660438538,
                3.845804214477539,
                -5.387068748474121
            ]
        },
        {
            "name" : "Cylinder.001",
            "rotation" : [
                -0.019089998677372932,
                0.025107834488153458,
                -0.6049438118934631,
                0.7956432700157166
            ],
            "scale" : [
                0.7627381086349487,
                0.3035511374473572,
                0.7627381086349487
            ],
            "translation" : [
                3.9163360595703125,
                1.604970932006836,
                5.703598499298096
            ]
        },
        {
            "mesh" : 3,
            "name" : "Sphere",
            "rotation" : [
                0,
                0.18441550433635712,
                0,
                0.9828483462333679
            ],
            "scale" : [
                5.109208106994629,
                5.109208106994629,
                5.109208106994629
            ],
            "translation" : [
                0.0036968737840652466,
                0.0012053847312927246,
                -0.0005550384521484375
            ]
        }
    ],
    "materials" : [
        {
            "doubleSided" : true,
            "name" : "Material.007",
            "pbrMetallicRoughness" : {}
        },
        {
            "doubleSided" : true,
            "name" : "Material.006",
            "pbrMetallicRoughness" : {}
        },
        {
            "doubleSided" : true,
            "name" : "Material.002",
            "pbrMetallicRoughness" : {}
        },
        {
            "doubleSided" : true,
            "emissiveFactor" : [
                1,
                0.6556973020108966,
                0.3037956271652317
            ],
            "extensions" : {
                "KHR_materials_emissive_strength" : {
                    "emissiveStrength" : 400.00003576278687
                }
            },
            "name" : "boosters",
            "pbrMetallicRoughness" : {
                "baseColorFactor" : [
                    0,
                    0,
                    0,
                    1
                ]
            }
        },
        {
            "doubleSided" : true,
            "name" : "red",
            "pbrMetallicRoughness" : {}
        },
        {
            "doubleSided" : true,
            "name" : "white",
            "pbrMetallicRoughness" : {}
        },
        {
            "doubleSided" : true,
            "name" : "Material.005",
            "pbrMetallicRoughness" : {
                "baseColorFactor" : [
                    0.5604417324066162,
                    0.5604417324066162,
                    0.5604417324066162,
                    1
                ],
                "metallicFactor" : 0,
                "roughnessFactor" : 0.5
            }
        }
    ],
    "meshes" : [
        {
            "name" : "Plane.003",
            "primitives" : [
                {
                    "attributes" : {
                        "POSITION" : 0,
                        "NORMAL" : 1,
                        "TEXCOORD_0" : 2
                    },
                    "indices" : 3,
                    "material" : 0
                }
            ]
        },
        {
            "name" : "Cylinder.001",
            "primitives" : [
                {
                    "attributes" : {
                        "POSITION" : 4,
                        "NORMAL" : 5
                    },
                    "indices" : 6,
                    "material" : 1
                }
            ]
        },
        {
            "name" : "Cube.004",
            "primitives" : [
                {
                    "attributes" : {
                        "POSITION" : 7,
                        "NORMAL" : 8
                    },
                    "indices" : 9,
                    "material" : 2
                },
                {
                    "attributes" : {
                        "POSITION" : 10,
                        "NORMAL" : 11
                    },
                    "indices" : 12,
                    "material" : 3
                },
                {
                    "attributes" : {
                        "POSITION" : 13,
                        "NORMAL" : 14
                    },
                    "indices" : 15,
                    "material" : 4
                },
                {
                    "attributes" : {
                        "POSITION" : 16,
                        "NORMAL" : 17
                    },
                    "indices" : 18,
                    "material" : 5
                }
            ]
        },
        {
            "name" : "Sphere",
            "primitives" : [
                {
                    "attributes" : {
                        "POSITION" : 19,
                        "NORMAL" : 20
                    },
                    "indices" : 21,
                    "material" : 6
                }
            ]
        }
    ],
    "accessors" : [
        {
            "bufferView" : 0,
            "componentType" : 5126,
            "count" : 32,
            "max" : [
                1,
                0.2534942328929901,
                0.9945563077926636
            ],
            "min" : [
                -1,
                -0.24116277694702148,
                -1.0054436922073364
            ],
            "type" : "VEC3"
        },
        {
            "bufferView" : 1,
            "componentType" : 5126,
            "count" : 32,
            "type" : "VEC3"
        },
        {
            "bufferView" : 2,
            "componentType" : 5126,
            "count" : 32,
            "type" : "VEC2"
        },
        {
            "bufferView" : 3,
            "componentType" : 5123,
            "count" : 48,
            "type" : "SCALAR"
        },
        {
            "bufferView" : 4,
            "componentType" : 5126,
            "count" : 30,
            "max" : [
                0.9510565400123596,
                1,
                0.8090170621871948
            ],
            "min" : [
                -0.9510564804077148,
                -1,
                -1
            ],
            "type" : "VEC3"
        },
        {
            "bufferView" : 5,
            "componentType" : 5126,
            "count" : 30,
            "type" : "VEC3"
        },
        {
            "bufferView" : 6,
            "componentType" : 5123,
            "count" : 48,
            "type" : "SCALAR"
        },
        {
            "bufferView" : 7,
            "componentType" : 5126,
            "count" : 1842,
            "max" : [
                12.496885299682617,
                36.878238677978516,
                7.163936138153076
            ],
            "min" : [
                -7.2310285568237305,
                -34.720123291015625,
                -4.9992499351501465
            ],
            "type" : "VEC3"
        },
        {
            "bufferView" : 8,
            "componentType" : 5126,
            "count" : 1842,
            "type" : "VEC3"
        },
        {
            "bufferView" : 9,
            "componentType" : 5123,
            "count" : 2778,
            "type" : "SCALAR"
        },
        {
            "bufferView" : 10,
            "componentType" : 5126,
            "count" : 82,
            "max" : [
                1.85835862159729,
                9.521223068237305,
                2.0973455905914307
            ],
            "min" : [
                -6.28913688659668,
                -11.847668647766113,
                -2.2575981616973877
            ],
            "type" : "VEC3"
        },
        {
            "bufferView" : 11,
            "componentType" : 5126,
            "count" : 82,
            "type" : "VEC3"
        },
        {
            "bufferView" : 12,
            "componentType" : 5123,
            "count" : 138,
            "type" : "SCALAR"
        },
        {
            "bufferView" : 13,
            "componentType" : 5126,
            "count" : 240,
            "max" : [
                6.991061687469482,
                21.170507431030273,
                3.1346538066864014
            ],
            "min" : [
                -6.4593505859375,
                -15.077383041381836,
                -3.4580466747283936
            ],
            "type" : "VEC3"
        },
        {
            "bufferView" : 14,
            "componentType" : 5126,
            "count" : 240,
            "type" : "VEC3"
        },
        {
            "bufferView" : 15,
            "componentType" : 5123,
            "count" : 360,
            "type" : "SCALAR"
        },
        {
            "bufferView" : 16,
            "componentType" : 5126,
            "count" : 120,
            "max" : [
                6.991061687469482,
                18.6691951751709,
                3.1346538066864014
            ],
            "min" : [
                -6.4593505859375,
                -11.879064559936523,
                -3.4580466747283936
            ],
            "type" : "VEC3"
        },
        {
            "bufferView" : 17,
            "componentType" : 5126,
            "count" : 120,
            "type" : "VEC3"
        },
        {
            "bufferView" : 18,
            "componentType" : 5123,
            "count" : 180,
            "type" : "SCALAR"
        },
        {
            "bufferView" : 19,
            "componentType" : 5126,
            "count" : 10140,
            "max" : [
                1.0807445049285889,
                1.0042439699172974,
                1.0849380493164062
            ],
            "min" : [
                -1.1076983213424683,
                -1.0596284866333008,
                -1.0571402311325073
            ],
            "type" : "VEC3"
        },
        {
            "bufferView" : 20,
            "componentType" : 5126,
            "count" : 10140,
            "type" : "VEC3"
        },
        {
            "bufferView" : 21,
            "componentType" : 5123,
            "count" : 10140,
            "type" : "SCALAR"
        }
    ],
    "bufferViews" : [
        {
            "buffer" : 0,
            "byteLength" : 384,
            "byteOffset" : 0,
            "target" : 34962
        },
        {
            "buffer" : 0,
            "byteLength" : 384,
            "byteOffset" : 384,
            "target" : 34962
        },
        {
            "buffer" : 0,
            "byteLength" : 256,
            "byteOffset" : 768,
            "target" : 34962
        },
        {
            "buffer" : 0,
            "byteLength" : 96,
            "byteOffset" : 1024,
            "target" : 34963
        },
        {
            "buffer" : 0,
            "byteLength" : 360,
            "byteOffset" : 1120,
            "target" : 34962
        },
        {
            "buffer" : 0,
            "byteLength" : 360,
            "byteOffset" : 1480,
            "target" : 34962
        },
        {
            "buffer" : 0,
            "byteLength" : 96,
            "byteOffset" : 1840,
            "target" : 34963
        },
        {
            "buffer" : 0,
            "byteLength" : 22104,
            "byteOffset" : 1936,
            "target" : 34962
        },
        {
            "buffer" : 0,
            "byteLength" : 22104,
            "byteOffset" : 24040,
            "target" : 34962
        },
        {
            "buffer" : 0,
            "byteLength" : 5556,
            "byteOffset" : 46144,
            "target" : 34963
        },
        {
            "buffer" : 0,
            "byteLength" : 984,
            "byteOffset" : 51700,
            "target" : 34962
        },
        {
            "buffer" : 0,
            "byteLength" : 984,
            "byteOffset" : 52684,
            "target" : 34962
        },
        {
            "buffer" : 0,
            "byteLength" : 276,
            "byteOffset" : 53668,
            "target" : 34963
        },
        {
            "buffer" : 0,
            "byteLength" : 2880,
            "byteOffset" : 53944,
            "target" : 34962
        },
        {
            "buffer" : 0,
            "byteLength" : 2880,
            "byteOffset" : 56824,
            "target" : 34962
        },
        {
            "buffer" : 0,
            "byteLength" : 720,
            "byteOffset" : 59704,
            "target" : 34963
        },
        {
            "buffer" : 0,
            "byteLength" : 1440,
            "byteOffset" : 60424,
            "target" : 34962
        },
        {
            "buffer" : 0,
            "byteLength" : 1440,
            "byteOffset" : 61864,
            "target" : 34962
        },
        {
            "buffer" : 0,
            "byteLength" : 360,
            "byteOffset" : 63304,
            "target" : 34963
        },
        {
            "buffer" : 0,
            "byteLength" : 121680,
            "byteOffset" : 63664,
            "target" : 34962
        },
        {
            "buffer" : 0,
            "byteLength" : 121680,
            "byteOffset" : 185344,
            "target" : 34962
        },
        {
            "buffer" : 0,
            "byteLength" : 20280,
            "byteOffset" : 307024,
            "target" : 34963
        }
    ],
    "buffers" : [
        {
            "byteLength" : 327304,
            "uri" : "data:application/octet-stream;base64,"
        }
    ]
}
